<svg width="25" height="24" viewBox="0 0 25 24" fill="none" xmlns="http://www.w3.org/2000/svg">
<path fill-rule="evenodd" clip-rule="evenodd" d="M16.422 2.35297C16.6464 2.11084 17.0245 2.0964 17.2666 2.32072C19.4644 4.35683 21.8971 10.2936 18.1628 16.7914C17.9983 17.0776 17.633 17.1763 17.3468 17.0118C17.0607 16.8473 16.962 16.482 17.1265 16.1959C20.5725 10.1996 18.2594 4.86983 16.4543 3.19755C16.2122 2.97323 16.1977 2.5951 16.422 2.35297Z" fill="#A0A0A0"/>
<circle cx="10.8756" cy="9.4494" r="3.18744" fill="#A0A0A0"/>
<path fill-rule="evenodd" clip-rule="evenodd" d="M8.80866 3.63011C9.60837 3.34606 10.458 3.22989 11.3047 3.28885C12.1513 3.3478 12.9766 3.58062 13.7293 3.97276C14.4819 4.36491 15.1456 4.90797 15.679 5.56805C16.2124 6.22814 16.6041 6.99107 16.8295 7.80925C16.9765 8.34281 17.0507 8.89239 17.0513 9.44318C17.0513 9.44531 17.0513 9.44744 17.0513 9.44957C17.0513 10.7294 16.9522 12.2291 16.2904 13.6732C15.6428 15.0864 14.4806 16.3956 12.4693 17.412C12.1685 18.1678 11.6208 19.4203 11.0204 20.3193C10.7809 20.7182 10.4615 21.0725 10.0848 21.3478C9.35962 21.8778 8.4536 22.0979 7.56608 21.9598C6.67856 21.8218 5.88223 21.3368 5.35229 20.6116C4.82235 19.8864 4.60219 18.9804 4.74026 18.0929C4.79099 17.7667 5.09652 17.5434 5.42267 17.5942C5.74881 17.6449 5.97208 17.9504 5.92134 18.2766C5.832 18.8509 5.97446 19.4371 6.31736 19.9064C6.66027 20.3756 7.17553 20.6894 7.74981 20.7788C8.32409 20.8681 8.91034 20.7256 9.37958 20.3827C9.52745 20.2747 9.6637 20.1461 9.78373 20.0022C10.4365 19.0801 11.1279 17.5919 11.4365 16.7692C11.4906 16.6249 11.5983 16.5071 11.7371 16.4404C13.6527 15.5195 14.66 14.3617 15.2038 13.1752C15.756 11.9702 15.856 10.681 15.856 9.44957C15.856 9.42233 15.8579 9.39551 15.8614 9.36924C15.8522 9.28991 15.8434 9.20902 15.8345 9.12756C15.7964 8.77774 15.7572 8.41758 15.6771 8.12674C15.4953 7.46692 15.1795 6.85164 14.7493 6.31932C14.3192 5.78699 13.7839 5.34904 13.177 5.03279C12.57 4.71655 11.9044 4.52879 11.2216 4.48125C10.5389 4.4337 9.85365 4.52739 9.20872 4.75646C8.56379 4.98553 7.97299 5.34507 7.4732 5.81263C6.97341 6.2802 6.57535 6.84576 6.30386 7.47401C6.03238 8.10227 5.8933 8.77974 5.8953 9.46414C5.89626 9.79421 5.62947 10.0626 5.2994 10.0635C4.96934 10.0645 4.70098 9.7977 4.70002 9.46764C4.69753 8.61898 4.87 7.77892 5.20664 6.99988C5.54328 6.22084 6.03687 5.51955 6.65661 4.93976C7.27635 4.35998 8.00894 3.91416 8.80866 3.63011Z" fill="#A0A0A0"/>
</svg>
