<svg width="25" height="24" viewBox="0 0 25 24" fill="none" xmlns="http://www.w3.org/2000/svg">
<path d="M19.5 8C21.1568 8 22.5 6.65685 22.5 5C22.5 3.34315 21.1568 2 19.5 2C17.8431 2 16.5 3.34315 16.5 5C16.5 6.65685 17.8431 8 19.5 8Z" stroke="#A0A0A0" stroke-width="1.5" stroke-linecap="round" stroke-linejoin="round"/>
<path d="M14.5 2H9.49999C4.49999 2 2.49999 4 2.49999 9V15C2.49999 20 4.49999 22 9.49999 22H15.5C20.5 22 22.5 20 22.5 15V10" stroke="#A0A0A0" stroke-width="1.5" stroke-linecap="round" stroke-linejoin="round"/>
<path d="M7.30999 14.9299C6.95999 13.8299 7.36999 12.4599 8.52999 12.0899C9.13999 11.8899 9.88999 12.0599 10.32 12.6499C10.72 12.0399 11.5 11.8999 12.1 12.0899C13.26 12.4599 13.67 13.8299 13.32 14.9299C12.77 16.6799 10.85 17.5899 10.32 17.5899C9.77999 17.5799 7.87999 16.6899 7.30999 14.9299Z" stroke="#A0A0A0" stroke-width="1.5" stroke-linecap="round" stroke-linejoin="round"/>
</svg>
