<svg width="25" height="24" viewBox="0 0 25 24" fill="none" xmlns="http://www.w3.org/2000/svg">
<path d="M19.9 5H20.9C22.5568 5 23.9 6.34315 23.9 8V8C23.9 9.65685 22.5568 11 20.9 11H19.9" stroke="#A0A0A0" stroke-width="1.5"/>
<path d="M1.89999 3H19.9V12V14V14C19.9 17.866 16.766 21 12.9 21H8.89999C5.034 21 1.89999 17.866 1.89999 14V14V12V3Z" stroke="#A0A0A0" stroke-width="1.5" stroke-linejoin="round"/>
<path d="M15.6629 7.27466C16.0073 7.62205 16.0049 8.17907 15.6577 8.51768L13.3682 10.7889L14.588 16.1825L13.7581 17.0117L11.5025 12.6456L9.20717 14.9227L9.41204 16.3718L8.78232 16.9907L7.7587 15.1218L5.89349 14.0761L6.5174 13.4455L7.98168 13.6686L10.2594 11.409L5.91449 9.09811L6.7502 8.27489L12.131 9.54064L14.4204 7.26942C14.7501 6.93073 15.3362 6.9332 15.6629 7.27466Z" fill="#A0A0A0"/>
</svg>
